<svg width="152" height="48" viewBox="0 0 152 48" fill="none" xmlns="http://www.w3.org/2000/svg">
    <path d="M76.6108 17.2336C80.786 17.2336 84.1708 14.4835 84.1708 11.0911C84.1708 7.6987 80.786 4.94861 76.6108 4.94861C72.4355 4.94861 70.6194 7.6987 70.6194 11.0911C70.6194 14.4835 72.4355 17.2336 76.6108 17.2336Z" fill="#FF1C5E"/>
    <path d="M128.669 4.98078H118.415V11.328H128.669V4.98078Z" fill="#FF1C5E"/>
    <path d="M127.154 35.22C127.154 38.512 123.994 41.1808 120.095 41.1808C116.197 41.1808 113.036 38.512 113.036 35.22C113.036 31.9279 116.197 29.2592 120.095 29.2592C123.994 29.2592 127.154 31.9279 127.154 35.22Z" fill="#FF1C5E"/>
    <path d="M63.1539 30.2004C60.9014 30.2004 59.0754 32.0263 59.0754 34.2788V35.5337C59.0754 37.7862 60.9014 39.6121 63.1539 39.6121H68.4872C70.7397 39.6121 72.5656 37.7862 72.5656 35.5337V34.2788C72.5656 32.0263 70.7397 30.2004 68.4872 30.2004H63.1539Z" fill="#FF1C5E"/>
    <path d="M47.3544 17.3683C48.1879 17.7388 49.3257 17.924 50.7678 17.924H55.6695C57.1115 17.924 58.2493 17.7388 59.0828 17.3683C59.9163 16.9847 60.5117 16.4092 60.8689 15.6418C61.2261 14.8745 61.4047 13.9087 61.4047 12.7444V3.63561H58.2295V12.7444C58.2295 13.7499 57.9913 14.4379 57.5151 14.8083C57.052 15.1655 56.2582 15.3441 55.1337 15.3441H51.3036C50.179 15.3441 49.3786 15.1655 48.9023 14.8083C48.4393 14.4379 48.2078 13.7499 48.2078 12.7444V1.66612L45.0326 0V12.7444C45.0326 13.9087 45.2112 14.8745 45.5684 15.6418C45.9256 16.4092 46.5209 16.9847 47.3544 17.3683Z" fill="white"/>
    <path d="M2.31072 17.924L0.658684 15.364H17.111C17.6931 15.364 18.1363 15.2317 18.4406 14.9671C18.7581 14.6892 18.9169 14.246 18.9169 13.6375C18.9169 13.0289 18.7581 12.5923 18.4406 12.3277C18.1363 12.0499 17.6931 11.911 17.111 11.911H10.0065C8.53795 11.911 7.39356 11.5604 6.5733 10.8592C5.76627 10.1448 5.36275 9.0996 5.36275 7.72368C5.36275 6.34776 5.76627 5.30921 6.5733 4.60802C7.39356 3.8936 8.53795 3.53639 10.0065 3.53639H17.1804L16.1038 1.31878L18.2683 0.0638751L20.8076 5.19374L20.8042 5.19451L21.3647 6.11624L10.3438 6.09639C9.77496 6.09639 9.33175 6.22869 9.01423 6.49329C8.69671 6.74466 8.53795 7.15479 8.53795 7.72368C8.53795 8.29257 8.69671 8.70932 9.01423 8.97392C9.33175 9.22529 9.77496 9.35097 10.3438 9.35097H17.4484C18.9169 9.35097 20.0547 9.71479 20.8617 10.4424C21.682 11.1569 22.0921 12.2219 22.0921 13.6375C22.0921 15.0398 21.682 16.1049 20.8617 16.8325C20.0547 17.5602 18.9169 17.924 17.4484 17.924H2.31072Z" fill="white"/>
    <path d="M25.3729 16.1181C26.4914 17.0875 27.9789 17.6666 29.8352 17.8555V15.1849C28.9763 15.0132 28.2893 14.7024 27.7741 14.2527C26.9406 13.5118 26.5239 12.3343 26.5239 10.7203C26.5239 9.10621 26.9406 7.93536 27.7741 7.20771C28.6076 6.48006 29.8843 6.11624 31.6042 6.11624H34.7397C36.4728 6.11624 37.7495 6.48006 38.5698 7.20771C39.4033 7.93536 39.82 9.10621 39.82 10.7203C39.82 12.3343 39.4099 13.5052 38.5896 14.2328C38.1184 14.6508 37.5009 14.951 36.7371 15.1332V17.8272C38.4922 17.613 39.9035 17.0433 40.971 16.1181C42.3601 14.9009 43.0547 13.1017 43.0547 10.7203C43.0547 8.3521 42.3601 6.56606 40.971 5.36213C39.5818 4.14497 37.5775 3.53639 34.958 3.53639H31.3859C28.7664 3.53639 26.762 4.14497 25.3729 5.36213C23.9837 6.56606 23.2891 8.3521 23.2891 10.7203C23.2891 13.1017 23.9837 14.9009 25.3729 16.1181Z" fill="white"/>
    <path d="M31.624 17.924V21.7199L34.7992 23.5293V17.9682L34.7985 15.3015L34.7992 12.8635L31.624 10.7203V15.3441V17.924Z" fill="white"/>
    <path d="M64.1799 3.63561V17.8248H67.3551V3.63561H64.1799Z" fill="white"/>
    <path fill-rule="evenodd" clip-rule="evenodd" d="M70.1295 3.63561V17.8248H78.8216C81.3883 17.8248 83.3794 17.2228 84.795 16.0189C86.2106 14.8149 86.9184 13.0487 86.9184 10.7203C86.9184 8.39179 86.2106 6.62559 84.795 5.42166C83.3794 4.21773 81.3883 3.61577 78.8216 3.61577L72.4712 3.63561H70.1295ZM73.3047 6.19562H78.6033C80.2703 6.19562 81.5338 6.55944 82.3938 7.28709C83.2537 8.00151 83.6837 9.1459 83.6837 10.7203C83.6837 12.2814 83.2537 13.4258 82.3938 14.1534C81.5338 14.8811 80.2703 15.2449 78.6033 15.2449H73.3047V6.19562Z" fill="white"/>
    <path d="M101.768 21.1765L101.775 21.1765V18.4757L101.768 18.4758V7.44679L111.974 17.8344H115.242V0L112.015 1.81531V13.7802L101.809 3.41277H98.541V18.502L94.7958 18.5324L96.8155 21.1765L101.768 21.1765Z" fill="white"/>
    <path d="M118.061 3.41277V17.8344H121.288V12.6506H129.499L132.05 10.0286H121.288V6.03488H133.471V3.41277H118.061Z" fill="white"/>
    <path d="M136.195 6.06861V3.41277H151.341V6.03488H145.43V21.6471L142.203 19.9072V6.03488H138.263L136.195 6.06861Z" fill="white"/>
    <path d="M39.6549 27.8083H43.1231L46.3698 38.1294L51.5462 27.8082L55.1541 27.8082L48.409 42.2527H44.9063L41.2985 31.573L37.8992 42.2526H34.2913L29.2926 30.7451H25.3306L23.3108 27.8161L30.2903 27.7594V27.8082H31.6247L36.3211 38.0651L39.6549 27.8083Z" fill="white"/>
    <path d="M96.7633 26.0392V42.122H110.383V39.5297H99.9538V27.8644L96.7633 26.0392Z" fill="white"/>
    <path fill-rule="evenodd" clip-rule="evenodd" d="M63.9052 42.2217C61.3661 42.2217 59.3986 41.6168 58.0028 40.4071C56.6069 39.1841 55.909 37.3761 55.909 34.9832C55.909 32.6036 56.6069 30.809 58.0028 29.5993C59.3986 28.3762 61.4126 27.7647 64.0448 27.7647H67.6341C70.2663 27.7647 72.2803 28.3762 73.6761 29.5993C75.072 30.809 75.7699 32.6036 75.7699 34.9832C75.7699 37.3761 75.072 39.1841 73.6761 40.4071C72.2803 41.6168 70.2995 42.2217 67.7338 42.2217H63.9052ZM63.1539 30.2004C60.9015 30.2004 59.0755 32.0263 59.0755 34.2788V35.5337C59.0755 37.7862 60.9015 39.6121 63.1539 39.6121H68.4873C70.7397 39.6121 72.5657 37.7862 72.5657 35.5337V34.2788C72.5657 32.0263 70.7397 30.2004 68.4873 30.2004H63.1539Z" fill="white"/>
    <path fill-rule="evenodd" clip-rule="evenodd" d="M77.7573 27.8644V48L80.9478 45.3333V36.8776H87.5282L91.1375 42.122H94.7667L90.9181 36.7779C92.0215 36.5918 92.8723 36.1331 93.4706 35.402C94.0688 34.6708 94.3679 33.6605 94.3679 32.371C94.3679 30.8555 93.9558 29.7255 93.1316 28.9811C92.3206 28.2366 91.1774 27.8644 89.7018 27.8644H77.7573ZM80.9478 30.4567H89.3229C89.9078 30.4567 90.3532 30.6029 90.6589 30.8954C90.978 31.1746 91.1375 31.6664 91.1375 32.371C91.1375 33.0623 90.978 33.5542 90.6589 33.8466C90.3532 34.1391 89.9078 34.2853 89.3229 34.2853L80.9478 34.2654V30.4567Z" fill="white"/>
    <path fill-rule="evenodd" clip-rule="evenodd" d="M112.381 42.122V27.8644H114.734L121.115 27.8445C123.694 27.8445 125.695 28.4493 127.117 29.6591C128.539 30.8688 129.251 32.6435 129.251 34.9832C129.251 37.3229 128.539 39.0977 127.117 40.3074C125.695 41.5171 123.694 42.122 121.115 42.122H112.381ZM120.896 30.4368H115.571V39.5297H120.896C122.571 39.5297 123.84 39.1641 124.704 38.433C125.568 37.7018 126 36.5519 126 34.9832C126 33.4013 125.568 32.2514 124.704 31.5335C123.84 30.8023 122.571 30.4368 120.896 30.4368Z" fill="white"/>
</svg>
